<?xml version="1.0" encoding="iso-8859-1"?>
<!-- Generator: Adobe Illustrator 19.0.0, SVG Export Plug-In . SVG Version: 6.00 Build 0)  -->
<svg version="1.1" id="Capa_1" xmlns="http://www.w3.org/2000/svg" xmlns:xlink="http://www.w3.org/1999/xlink" x="0px" y="0px"
	 viewBox="0 0 511.999 511.999" style="enable-background:new 0 0 511.999 511.999;" xml:space="preserve">
<g>
	<g>
		<path d="M315.571,231.653H192.753c-4.321,0-7.823,3.502-7.823,7.823c0,4.321,3.502,7.823,7.823,7.823h122.818
			c4.321,0,7.823-3.502,7.823-7.823C323.394,235.155,319.892,231.653,315.571,231.653z"/>
	</g>
</g>
<g>
	<g>
		<path d="M407.04,231.653h-41.098V109.941c0-27.405-10.143-53.658-28.562-73.924c-2.904-3.197-7.853-3.432-11.05-0.528
			c-3.197,2.905-3.434,7.853-0.528,11.05c15.795,17.38,24.494,39.896,24.494,63.401v157.898c0,51.995-42.3,94.295-94.295,94.295
			s-94.296-42.3-94.296-94.295V109.941c0-51.995,42.301-94.295,94.296-94.295c18.897,0,37.127,5.567,52.715,16.099
			c3.581,2.417,8.443,1.478,10.863-2.103c2.418-3.579,1.477-8.442-2.103-10.862C299.29,6.494,278.032,0,256.001,0
			c-60.622,0-109.942,49.32-109.942,109.941v121.712H104.96c-4.321,0-7.823,3.502-7.823,7.823v26.317
			c0,84.974,67.063,154.576,151.04,158.668v71.892h-63.12c-4.321,0-7.823,3.502-7.823,7.823s3.502,7.823,7.823,7.823h141.886
			c4.321,0,7.823-3.502,7.823-7.823s-3.502-7.823-7.823-7.823h-63.12v-71.892c83.978-4.093,151.039-73.694,151.039-158.668v-26.317
			C414.863,235.155,411.361,231.653,407.04,231.653z M399.217,265.794c0,78.97-64.247,143.216-143.216,143.216
			c-78.971,0-143.217-64.247-143.217-143.216V247.3h33.275v20.54c0,60.621,49.32,109.941,109.942,109.941
			c60.621,0,109.941-49.32,109.941-109.941V247.3h33.275V265.794z"/>
	</g>
</g>
<g>
</g>
<g>
</g>
<g>
</g>
<g>
</g>
<g>
</g>
<g>
</g>
<g>
</g>
<g>
</g>
<g>
</g>
<g>
</g>
<g>
</g>
<g>
</g>
<g>
</g>
<g>
</g>
<g>
</g>
</svg>
