<?xml version="1.0" encoding="iso-8859-1"?>
<!-- Generator: Adobe Illustrator 19.0.0, SVG Export Plug-In . SVG Version: 6.00 Build 0)  -->
<svg version="1.1" id="Capa_1" xmlns="http://www.w3.org/2000/svg" xmlns:xlink="http://www.w3.org/1999/xlink" x="0px" y="0px"
	 viewBox="0 0 512 512" style="enable-background:new 0 0 512 512;" xml:space="preserve">
<g>
	<g>
		<path d="M466.704,2.635h-42.755c-4.36,0-7.893,3.534-7.893,7.893s3.533,7.893,7.893,7.893h42.755
			c16.272,0,29.51,13.238,29.51,29.51v42.755c0,4.359,3.533,7.893,7.893,7.893c4.36,0,7.893-3.534,7.893-7.893V47.932
			C512,22.956,491.68,2.635,466.704,2.635z"/>
	</g>
</g>
<g>
	<g>
		<path d="M88.051,2.635H45.296C20.32,2.635,0,22.956,0,47.932v42.755c0,4.359,3.533,7.893,7.893,7.893s7.893-3.534,7.893-7.893
			V47.932c0-16.272,13.238-29.51,29.51-29.51h42.755c4.36,0,7.893-3.534,7.893-7.893S92.41,2.635,88.051,2.635z"/>
	</g>
</g>
<g>
	<g>
		<path d="M504.107,413.42c-4.36,0-7.893,3.534-7.893,7.893v42.755c0,16.272-13.238,29.51-29.51,29.51h-42.755
			c-4.36,0-7.893,3.534-7.893,7.893s3.533,7.893,7.893,7.893h42.755c24.976,0,45.296-20.32,45.296-45.296v-42.755
			C512,416.954,508.467,413.42,504.107,413.42z"/>
	</g>
</g>
<g>
	<g>
		<path d="M88.051,493.578H45.296c-16.272,0-29.51-13.238-29.51-29.51v-42.755c0-4.359-3.533-7.893-7.893-7.893S0,416.954,0,421.313
			v42.755c0,24.976,20.32,45.296,45.296,45.296h42.755c4.36,0,7.893-3.534,7.893-7.893S92.41,493.578,88.051,493.578z"/>
	</g>
</g>
<g>
	<g>
		<path d="M258.614,118.193c-36.258,0-65.757,29.498-65.757,65.757c0,36.259,29.498,65.757,65.757,65.757
			c36.258,0,65.757-29.498,65.757-65.757C324.371,147.69,294.872,118.193,258.614,118.193z M258.614,233.919
			c-27.554,0-49.971-22.417-49.971-49.971s22.416-49.971,49.971-49.971c27.554,0,49.971,22.417,49.971,49.971
			S286.168,233.919,258.614,233.919z"/>
	</g>
</g>
<g>
	<g>
		<path d="M314.556,263.836H197.444c-42.465,0-77.012,34.548-77.012,77.012v37.315c0,8.626,7.018,15.644,15.644,15.644h125.67
			c4.36,0,7.893-3.534,7.893-7.893s-3.533-7.893-7.893-7.893h-71.195V342.24c0-4.359-3.533-7.893-7.893-7.893
			c-4.36,0-7.893,3.534-7.893,7.893v35.781h-38.547v-37.173c0-33.76,27.466-61.226,61.226-61.226h117.112
			c33.76,0,61.226,27.466,61.226,61.226v37.173h-38.948V342.24c0-4.359-3.533-7.893-7.893-7.893c-4.36,0-7.893,3.534-7.893,7.893
			v35.781h-23.992c-4.36,0-7.893,3.534-7.893,7.893s3.533,7.893,7.893,7.893h78.868c8.626,0,15.644-7.018,15.644-15.644v-37.315
			C391.568,298.385,357.021,263.836,314.556,263.836z"/>
	</g>
</g>
<g>
</g>
<g>
</g>
<g>
</g>
<g>
</g>
<g>
</g>
<g>
</g>
<g>
</g>
<g>
</g>
<g>
</g>
<g>
</g>
<g>
</g>
<g>
</g>
<g>
</g>
<g>
</g>
<g>
</g>
</svg>
