<?xml version="1.0" encoding="iso-8859-1"?>
<!-- Generator: Adobe Illustrator 19.0.0, SVG Export Plug-In . SVG Version: 6.00 Build 0)  -->
<svg version="1.1" id="Capa_1" xmlns="http://www.w3.org/2000/svg" xmlns:xlink="http://www.w3.org/1999/xlink" x="0px" y="0px"
	 viewBox="0 0 512 512" style="enable-background:new 0 0 512 512;" xml:space="preserve">
<g>
	<g>
		<path d="M504.27,91.032c-4.27,0-7.73,3.461-7.73,7.73v359.204c0,21.269-17.304,38.573-38.573,38.573H54.033
			c-21.269,0-38.573-17.303-38.573-38.573V54.033c0-21.269,17.304-38.573,38.573-38.573h403.933
			c21.269,0,38.573,17.303,38.573,38.573c0,4.269,3.461,7.73,7.73,7.73c4.27,0,7.73-3.461,7.73-7.73C512,24.239,487.761,0,457.967,0
			H54.033C24.239,0,0,24.239,0,54.033v403.933C0,487.761,24.239,512,54.033,512h403.933C487.761,512,512,487.761,512,457.967V98.762
			C512,94.493,508.539,91.032,504.27,91.032z"/>
	</g>
</g>
<g>
	<g>
		<path d="M124.053,105.99h-17.188c-11.8,0-21.401,9.6-21.401,21.401v17.189c0,11.8,9.601,21.4,21.401,21.4h17.188
			c11.8,0,21.401-9.6,21.401-21.4v-17.189C145.454,115.591,135.853,105.99,124.053,105.99z M129.993,144.58
			c0,3.275-2.664,5.939-5.94,5.939h-17.188c-3.275,0-5.94-2.664-5.94-5.939v-17.189c0-3.275,2.664-5.94,5.94-5.94h17.188
			c3.275,0,5.94,2.664,5.94,5.94V144.58z"/>
	</g>
</g>
<g>
	<g>
		<path d="M418.805,128.255H182.253c-4.27,0-7.73,3.461-7.73,7.73s3.461,7.73,7.73,7.73h236.552c4.27,0,7.73-3.461,7.73-7.73
			S423.075,128.255,418.805,128.255z"/>
	</g>
</g>
<g>
	<g>
		<path d="M124.053,221.833h-17.188c-11.8,0-21.401,9.6-21.401,21.4v17.189c0,11.8,9.601,21.401,21.401,21.401h17.188
			c11.8,0,21.401-9.6,21.401-21.401v-17.189C145.454,231.433,135.853,221.833,124.053,221.833z M129.993,260.422
			c0,3.275-2.664,5.94-5.94,5.94h-17.188c-3.275,0-5.94-2.664-5.94-5.94v-17.189c0-3.275,2.664-5.939,5.94-5.939h17.188
			c3.275,0,5.94,2.664,5.94,5.939V260.422z"/>
	</g>
</g>
<g>
	<g>
		<path d="M418.805,244.097H182.253c-4.27,0-7.73,3.461-7.73,7.73c0,4.269,3.461,7.73,7.73,7.73h236.552
			c4.27,0,7.73-3.461,7.73-7.73C426.535,247.558,423.075,244.097,418.805,244.097z"/>
	</g>
</g>
<g>
	<g>
		<path d="M124.053,346.02h-17.188c-11.8,0-21.401,9.6-21.401,21.401v17.189c0,11.8,9.601,21.401,21.401,21.401h17.188
			c11.8,0,21.401-9.6,21.401-21.401v-17.19C145.454,355.62,135.853,346.02,124.053,346.02z M129.993,384.609
			c0,3.275-2.664,5.94-5.94,5.94h-17.188c-3.275,0-5.94-2.664-5.94-5.94V367.42c0-3.275,2.664-5.94,5.94-5.94h17.188
			c3.275,0,5.94,2.664,5.94,5.94V384.609z"/>
	</g>
</g>
<g>
	<g>
		<path d="M418.805,368.284H182.253c-4.27,0-7.73,3.461-7.73,7.73c0,4.269,3.461,7.73,7.73,7.73h236.552
			c4.27,0,7.73-3.461,7.73-7.73C426.535,371.746,423.075,368.284,418.805,368.284z"/>
	</g>
</g>
<g>
</g>
<g>
</g>
<g>
</g>
<g>
</g>
<g>
</g>
<g>
</g>
<g>
</g>
<g>
</g>
<g>
</g>
<g>
</g>
<g>
</g>
<g>
</g>
<g>
</g>
<g>
</g>
<g>
</g>
</svg>
